0
SECTION
2
HEADER
9
$INSUNITS
70
4
9
$ACADVER
1
AC1014
9
$HANDSEED
5
FFFF
0
ENDSEC
0
SECTION
2
TABLES
0
TABLE
2
VPORT
5
8
100
AcDbSymbolTable
0
ENDTAB
0
TABLE
2
LTYPE
5
5
100
AcDbSymbolTable
0
LTYPE
5
14
100
AcDbSymbolTableRecord
100
AcDbLinetypeTableRecord
2
BYBLOCK
70
0
0
LTYPE
5
15
100
AcDbSymbolTableRecord
100
AcDbLinetypeTableRecord
2
BYLAYER
70
0
0
ENDTAB
0
TABLE
2
LAYER
5
2
100
AcDbSymbolTable
70
2
0
LAYER
5
50
100
AcDbSymbolTableRecord
100
AcDbLayerTableRecord
2
0
70
0
6
CONTINUOUS
0
ENDTAB
0
TABLE
2
STYLE
5
3
100
AcDbSymbolTable
70
1
0
STYLE
5
11
100
AcDbSymbolTableRecord
100
AcDbTextStyleTableRecord
2
STANDARD
70
0
0
ENDTAB
0
TABLE
2
VIEW
5
6
100
AcDbSymbolTable
70
0
0
ENDTAB
0
TABLE
2
UCS
5
7
100
AcDbSymbolTable
70
0
0
ENDTAB
0
TABLE
2
APPID
5
9
100
AcDbSymbolTable
70
2
0
APPID
5
12
100
AcDbSymbolTableRecord
100
AcDbRegAppTableRecord
2
ACAD
70
0
0
ENDTAB
0
TABLE
2
DIMSTYLE
5
A
100
AcDbSymbolTable
70
1
0
ENDTAB
0
TABLE
2
BLOCK_RECORD
5
1
100
AcDbSymbolTable
70
1
0
BLOCK_RECORD
5
1F
100
AcDbSymbolTableRecord
100
AcDbBlockTableRecord
2
*MODEL_SPACE
0
BLOCK_RECORD
5
1B
100
AcDbSymbolTableRecord
100
AcDbBlockTableRecord
2
*PAPER_SPACE
0
ENDTAB
0
ENDSEC
0
SECTION
2
BLOCKS
0
BLOCK
5
20
100
AcDbEntity
100
AcDbBlockBegin
2
*MODEL_SPACE
0
ENDBLK
5
21
100
AcDbEntity
100
AcDbBlockEnd
0
BLOCK
5
1C
100
AcDbEntity
100
AcDbBlockBegin
2
*PAPER_SPACE
0
ENDBLK
5
1D
100
AcDbEntity
100
AcDbBlockEnd
0
ENDSEC
0
SECTION
2
ENTITIES
0
LINE
5
100
100
AcDbEntity
8
0
100
AcDbLine
10
60.476662273982733
20
53.465663771401879
30
0
11
-122.78333772601727
21
53.465663771401879
31
0
0
LINE
5
101
100
AcDbEntity
8
0
100
AcDbLine
10
-123.28333772601729
20
213.40566377140189
30
0
11
-123.28333772601729
21
53.465663771401886
31
0
0
LINE
5
102
100
AcDbEntity
8
0
100
AcDbLine
10
-122.28333772601728
20
213.40566377140189
30
0
11
-122.28333772601728
21
53.465663771401886
31
0
0
LINE
5
103
100
AcDbEntity
8
0
100
AcDbLine
10
-123.28333772601729
20
213.40566377140189
30
0
11
-122.28333772601728
21
213.40566377140189
31
0
0
LINE
5
104
100
AcDbEntity
8
0
100
AcDbLine
10
-123.28333772601729
20
53.465663771401886
30
0
11
-122.28333772601728
21
53.465663771401886
31
0
0
LWPOLYLINE
5
105
100
AcDbEntity
8
0
100
AcDbPolyline
90
4
70
1
43
0.0
10
-106.62333772601728
20
53.465663771401886
10
-106.62333772601728
20
213.40566377140189
10
-105.62333772601727
20
213.40566377140189
10
-105.62333772601727
20
53.465663771401886
0
LWPOLYLINE
5
106
100
AcDbEntity
8
0
100
AcDbPolyline
90
4
70
1
43
0.0
10
-89.963337726017286
20
53.465663771401886
10
-89.963337726017286
20
213.40566377140189
10
-88.963337726017272
20
213.40566377140189
10
-88.963337726017272
20
53.465663771401886
0
LWPOLYLINE
5
107
100
AcDbEntity
8
0
100
AcDbPolyline
90
4
70
1
43
0.0
10
-73.303337726017276
20
53.465663771401886
10
-73.303337726017276
20
213.40566377140189
10
-72.303337726017261
20
213.40566377140189
10
-72.303337726017261
20
53.465663771401886
0
LWPOLYLINE
5
108
100
AcDbEntity
8
0
100
AcDbPolyline
90
4
70
1
43
0.0
10
-56.643337726017279
20
53.465663771401886
10
-56.643337726017279
20
213.40566377140189
10
-55.643337726017265
20
213.40566377140189
10
-55.643337726017265
20
53.465663771401886
0
LWPOLYLINE
5
109
100
AcDbEntity
8
0
100
AcDbPolyline
90
4
70
1
43
0.0
10
-39.983337726017268
20
53.465663771401886
10
-39.983337726017268
20
213.40566377140189
10
-38.983337726017254
20
213.40566377140189
10
-38.983337726017254
20
53.465663771401886
0
LWPOLYLINE
5
110
100
AcDbEntity
8
0
100
AcDbPolyline
90
4
70
1
43
0.0
10
-23.323337726017268
20
53.465663771401886
10
-23.323337726017268
20
213.40566377140189
10
-22.323337726017254
20
213.40566377140189
10
-22.323337726017254
20
53.465663771401886
0
LWPOLYLINE
5
111
100
AcDbEntity
8
0
100
AcDbPolyline
90
4
70
1
43
0.0
10
-6.6633377260172644
20
53.465663771401886
10
-6.6633377260172644
20
213.40566377140189
10
-5.6633377260172502
20
213.40566377140189
10
-5.6633377260172502
20
53.465663771401886
0
LWPOLYLINE
5
112
100
AcDbEntity
8
0
100
AcDbPolyline
90
4
70
1
43
0.0
10
9.9966622739827393
20
53.465663771401886
10
9.9966622739827393
20
213.40566377140189
10
10.996662273982754
20
213.40566377140189
10
10.996662273982754
20
53.465663771401886
0
LWPOLYLINE
5
113
100
AcDbEntity
8
0
100
AcDbPolyline
90
4
70
1
43
0.0
10
26.656662273982743
20
53.465663771401886
10
26.656662273982743
20
213.40566377140189
10
27.656662273982757
20
213.40566377140189
10
27.656662273982757
20
53.465663771401886
0
LWPOLYLINE
5
114
100
AcDbEntity
8
0
100
AcDbPolyline
90
4
70
1
43
0.0
10
43.316662273982743
20
53.465663771401886
10
43.316662273982743
20
213.40566377140189
10
44.316662273982757
20
213.40566377140189
10
44.316662273982757
20
53.465663771401886
0
LINE
5
115
100
AcDbEntity
8
0
100
AcDbLine
10
59.976662273982754
20
213.40566377140189
30
0
11
59.976662273982754
21
53.465663771401886
31
0
0
LINE
5
116
100
AcDbEntity
8
0
100
AcDbLine
10
60.976662273982768
20
213.40566377140189
30
0
11
60.976662273982768
21
53.465663771401886
31
0
0
LINE
5
117
100
AcDbEntity
8
0
100
AcDbLine
10
59.976662273982754
20
213.40566377140189
30
0
11
60.976662273982768
21
213.40566377140189
31
0
0
LINE
5
118
100
AcDbEntity
8
0
100
AcDbLine
10
59.976662273982754
20
53.465663771401886
30
0
11
60.976662273982768
21
53.465663771401886
31
0
0
LINE
5
119
100
AcDbEntity
8
0
100
AcDbLine
10
-122.78333772601728
20
203.40566377140189
30
0
11
-122.78333772601728
21
196.74566377140189
31
0
0
LWPOLYLINE
5
120
100
AcDbEntity
8
0
100
AcDbPolyline
90
4
70
1
43
0.0
10
60.976662273982768
20
199.57566377140185
10
-122.78333772601728
20
199.57566377140185
10
-122.78333772601728
20
200.57566377140188
10
60.976662273982768
20
200.57566377140188
0
LWPOLYLINE
5
121
100
AcDbEntity
8
0
100
AcDbPolyline
90
4
70
1
43
0.0
10
60.976662273982768
20
183.91566377140185
10
-122.78333772601728
20
183.91566377140185
10
-122.78333772601728
20
182.91566377140185
10
60.976662273982768
20
182.91566377140185
0
LWPOLYLINE
5
122
100
AcDbEntity
8
0
100
AcDbPolyline
90
4
70
1
43
0.0
10
60.976662273982768
20
167.25566377140186
10
-122.78333772601728
20
167.25566377140186
10
-122.78333772601728
20
166.25566377140186
10
60.976662273982768
20
166.25566377140186
0
LWPOLYLINE
5
123
100
AcDbEntity
8
0
100
AcDbPolyline
90
4
70
1
43
0.0
10
60.976662273982768
20
150.59566377140186
10
-122.78333772601728
20
150.59566377140186
10
-122.78333772601728
20
149.59566377140186
10
60.976662273982768
20
149.59566377140186
0
LWPOLYLINE
5
124
100
AcDbEntity
8
0
100
AcDbPolyline
90
4
70
1
43
0.0
10
60.976662273982768
20
133.93566377140186
10
-122.78333772601728
20
133.93566377140186
10
-122.78333772601728
20
132.93566377140183
10
60.976662273982768
20
132.93566377140183
0
LWPOLYLINE
5
125
100
AcDbEntity
8
0
100
AcDbPolyline
90
4
70
1
43
0.0
10
60.976662273982768
20
117.27566377140185
10
-122.78333772601728
20
117.27566377140185
10
-122.78333772601728
20
116.27566377140184
10
60.976662273982768
20
116.27566377140184
0
LWPOLYLINE
5
126
100
AcDbEntity
8
0
100
AcDbPolyline
90
4
70
1
43
0.0
10
60.976662273982768
20
100.61566377140184
10
-122.78333772601728
20
100.61566377140184
10
-122.78333772601728
20
99.615663771401842
10
60.976662273982768
20
99.615663771401842
0
LWPOLYLINE
5
127
100
AcDbEntity
8
0
100
AcDbPolyline
90
4
70
1
43
0.0
10
60.976662273982768
20
83.955663771401845
10
-122.78333772601728
20
83.955663771401845
10
-122.78333772601728
20
82.955663771401831
10
60.976662273982768
20
82.955663771401831
0
LWPOLYLINE
5
128
100
AcDbEntity
8
0
100
AcDbPolyline
90
4
70
1
43
0.0
10
60.976662273982768
20
67.295663771401848
10
-122.78333772601728
20
67.295663771401848
10
-122.78333772601728
20
66.29566377140182
10
60.976662273982768
20
66.29566377140182
0
LINE
5
129
100
AcDbEntity
8
0
100
AcDbLine
10
-122.78333772601728
20
50.635663771401838
30
0
11
60.976662273982768
21
50.635663771401838
31
0
0
LINE
5
130
100
AcDbEntity
8
0
100
AcDbLine
10
-122.78333772601728
20
49.635663771401823
30
0
11
60.976662273982768
21
49.635663771401823
31
0
0
LINE
5
131
100
AcDbEntity
8
0
100
AcDbLine
10
-122.78333772601728
20
50.635663771401838
30
0
11
-122.78333772601728
21
49.635663771401823
31
0
0
LINE
5
132
100
AcDbEntity
8
0
100
AcDbLine
10
60.976662273982768
20
50.635663771401838
30
0
11
60.976662273982768
21
49.635663771401823
31
0
0
LINE
5
133
100
AcDbEntity
8
0
100
AcDbLine
10
-122.78333772601728
20
217.23566377140187
30
0
11
60.976662273982768
21
217.23566377140187
31
0
0
LINE
5
134
100
AcDbEntity
8
0
100
AcDbLine
10
-122.78333772601728
20
216.23566377140185
30
0
11
60.976662273982768
21
216.23566377140185
31
0
0
LINE
5
135
100
AcDbEntity
8
0
100
AcDbLine
10
-122.78333772601728
20
217.23566377140187
30
0
11
-122.78333772601728
21
216.23566377140185
31
0
0
LINE
5
136
100
AcDbEntity
8
0
100
AcDbLine
10
60.976662273982768
20
217.23566377140187
30
0
11
60.976662273982768
21
216.23566377140185
31
0
0
LINE
5
137
100
AcDbEntity
8
0
100
AcDbLine
10
-122.28333772601728
20
213.40566377140189
30
0
11
-122.28333772601728
21
217.23566377140187
31
0
0
LINE
5
138
100
AcDbEntity
8
0
100
AcDbLine
10
-123.28333772601729
20
213.40566377140189
30
0
11
-123.28333772601729
21
217.23566377140187
31
0
0
LINE
5
139
100
AcDbEntity
8
0
100
AcDbLine
10
-123.28333772601729
20
217.23566377140187
30
0
11
-122.28333772601728
21
217.23566377140187
31
0
0
LINE
5
140
100
AcDbEntity
8
0
100
AcDbLine
10
-106.62333772601728
20
213.40566377140189
30
0
11
-106.62333772601728
21
217.23566377140187
31
0
0
LINE
5
141
100
AcDbEntity
8
0
100
AcDbLine
10
-105.62333772601727
20
213.40566377140189
30
0
11
-105.62333772601727
21
217.23566377140187
31
0
0
LINE
5
142
100
AcDbEntity
8
0
100
AcDbLine
10
-89.963337726017286
20
213.40566377140189
30
0
11
-89.963337726017286
21
217.23566377140187
31
0
0
LINE
5
143
100
AcDbEntity
8
0
100
AcDbLine
10
-88.963337726017272
20
213.40566377140189
30
0
11
-88.963337726017272
21
217.23566377140187
31
0
0
LINE
5
144
100
AcDbEntity
8
0
100
AcDbLine
10
-73.303337726017276
20
213.40566377140189
30
0
11
-73.303337726017276
21
217.23566377140187
31
0
0
LINE
5
145
100
AcDbEntity
8
0
100
AcDbLine
10
-72.303337726017261
20
213.40566377140189
30
0
11
-72.303337726017261
21
217.23566377140187
31
0
0
LINE
5
146
100
AcDbEntity
8
0
100
AcDbLine
10
-56.643337726017279
20
213.40566377140189
30
0
11
-56.643337726017279
21
217.23566377140187
31
0
0
LINE
5
147
100
AcDbEntity
8
0
100
AcDbLine
10
-55.643337726017265
20
213.40566377140189
30
0
11
-55.643337726017265
21
217.23566377140187
31
0
0
LINE
5
148
100
AcDbEntity
8
0
100
AcDbLine
10
-39.983337726017268
20
213.40566377140189
30
0
11
-39.983337726017268
21
217.23566377140187
31
0
0
LINE
5
149
100
AcDbEntity
8
0
100
AcDbLine
10
-38.983337726017254
20
213.40566377140189
30
0
11
-38.983337726017254
21
217.23566377140187
31
0
0
LINE
5
150
100
AcDbEntity
8
0
100
AcDbLine
10
-23.323337726017268
20
213.40566377140189
30
0
11
-23.323337726017268
21
217.23566377140187
31
0
0
LINE
5
151
100
AcDbEntity
8
0
100
AcDbLine
10
-22.323337726017254
20
213.40566377140189
30
0
11
-22.323337726017254
21
217.23566377140187
31
0
0
LINE
5
152
100
AcDbEntity
8
0
100
AcDbLine
10
-6.6633377260172644
20
213.40566377140189
30
0
11
-6.6633377260172644
21
217.23566377140187
31
0
0
LINE
5
153
100
AcDbEntity
8
0
100
AcDbLine
10
-5.6633377260172502
20
213.40566377140189
30
0
11
-5.6633377260172502
21
217.23566377140187
31
0
0
LINE
5
154
100
AcDbEntity
8
0
100
AcDbLine
10
9.9966622739827393
20
213.40566377140189
30
0
11
9.9966622739827393
21
217.23566377140187
31
0
0
LINE
5
155
100
AcDbEntity
8
0
100
AcDbLine
10
10.996662273982754
20
213.40566377140189
30
0
11
10.996662273982754
21
217.23566377140187
31
0
0
LINE
5
156
100
AcDbEntity
8
0
100
AcDbLine
10
26.656662273982743
20
213.40566377140189
30
0
11
26.656662273982743
21
217.23566377140187
31
0
0
LINE
5
157
100
AcDbEntity
8
0
100
AcDbLine
10
27.656662273982757
20
213.40566377140189
30
0
11
27.656662273982757
21
217.23566377140187
31
0
0
LINE
5
158
100
AcDbEntity
8
0
100
AcDbLine
10
43.316662273982743
20
213.40566377140189
30
0
11
43.316662273982743
21
217.23566377140187
31
0
0
LINE
5
159
100
AcDbEntity
8
0
100
AcDbLine
10
44.316662273982757
20
213.40566377140189
30
0
11
44.316662273982757
21
217.23566377140187
31
0
0
LINE
5
160
100
AcDbEntity
8
0
100
AcDbLine
10
59.976662273982754
20
213.40566377140189
30
0
11
59.976662273982754
21
217.23566377140187
31
0
0
LINE
5
161
100
AcDbEntity
8
0
100
AcDbLine
10
60.976662273982768
20
213.40566377140189
30
0
11
60.976662273982768
21
217.23566377140187
31
0
0
LINE
5
162
100
AcDbEntity
8
0
100
AcDbLine
10
60.976662273982768
20
53.465663771401886
30
0
11
60.976662273982768
21
50.635663771401838
31
0
0
LINE
5
163
100
AcDbEntity
8
0
100
AcDbLine
10
59.976662273982754
20
53.465663771401886
30
0
11
59.976662273982754
21
50.635663771401838
31
0
0
LINE
5
164
100
AcDbEntity
8
0
100
AcDbLine
10
44.316662273982757
20
53.465663771401886
30
0
11
44.316662273982757
21
50.635663771401838
31
0
0
LINE
5
165
100
AcDbEntity
8
0
100
AcDbLine
10
43.316662273982743
20
53.465663771401886
30
0
11
43.316662273982743
21
50.635663771401838
31
0
0
LINE
5
166
100
AcDbEntity
8
0
100
AcDbLine
10
27.656662273982757
20
53.465663771401886
30
0
11
27.656662273982757
21
50.635663771401838
31
0
0
LINE
5
167
100
AcDbEntity
8
0
100
AcDbLine
10
26.656662273982743
20
53.465663771401886
30
0
11
26.656662273982743
21
50.635663771401838
31
0
0
LINE
5
168
100
AcDbEntity
8
0
100
AcDbLine
10
10.996662273982754
20
53.465663771401886
30
0
11
10.996662273982754
21
50.635663771401838
31
0
0
LINE
5
169
100
AcDbEntity
8
0
100
AcDbLine
10
9.9966622739827393
20
53.465663771401886
30
0
11
9.9966622739827393
21
50.635663771401838
31
0
0
LINE
5
170
100
AcDbEntity
8
0
100
AcDbLine
10
-5.6633377260172502
20
53.465663771401886
30
0
11
-5.6633377260172502
21
50.635663771401838
31
0
0
LINE
5
171
100
AcDbEntity
8
0
100
AcDbLine
10
-6.6633377260172644
20
53.465663771401886
30
0
11
-6.6633377260172644
21
50.635663771401838
31
0
0
LINE
5
172
100
AcDbEntity
8
0
100
AcDbLine
10
-22.323337726017254
20
53.465663771401886
30
0
11
-22.323337726017254
21
50.635663771401838
31
0
0
LINE
5
173
100
AcDbEntity
8
0
100
AcDbLine
10
-23.323337726017268
20
53.465663771401886
30
0
11
-23.323337726017268
21
50.635663771401838
31
0
0
LINE
5
174
100
AcDbEntity
8
0
100
AcDbLine
10
-38.983337726017254
20
53.465663771401886
30
0
11
-38.983337726017254
21
50.635663771401838
31
0
0
LINE
5
175
100
AcDbEntity
8
0
100
AcDbLine
10
-39.983337726017268
20
53.465663771401886
30
0
11
-39.983337726017268
21
50.635663771401838
31
0
0
LINE
5
176
100
AcDbEntity
8
0
100
AcDbLine
10
-55.643337726017265
20
53.465663771401886
30
0
11
-55.643337726017265
21
50.635663771401838
31
0
0
LINE
5
177
100
AcDbEntity
8
0
100
AcDbLine
10
-56.643337726017279
20
53.465663771401886
30
0
11
-56.643337726017279
21
50.635663771401838
31
0
0
LINE
5
178
100
AcDbEntity
8
0
100
AcDbLine
10
-72.303337726017261
20
53.465663771401886
30
0
11
-72.303337726017261
21
50.635663771401838
31
0
0
LINE
5
179
100
AcDbEntity
8
0
100
AcDbLine
10
-73.303337726017276
20
53.465663771401886
30
0
11
-73.303337726017276
21
50.635663771401838
31
0
0
LINE
5
180
100
AcDbEntity
8
0
100
AcDbLine
10
-88.963337726017272
20
53.465663771401886
30
0
11
-88.963337726017272
21
50.635663771401838
31
0
0
LINE
5
181
100
AcDbEntity
8
0
100
AcDbLine
10
-89.963337726017286
20
53.465663771401886
30
0
11
-89.963337726017286
21
50.635663771401838
31
0
0
LINE
5
182
100
AcDbEntity
8
0
100
AcDbLine
10
-105.62333772601727
20
53.465663771401886
30
0
11
-105.62333772601727
21
50.635663771401838
31
0
0
LINE
5
183
100
AcDbEntity
8
0
100
AcDbLine
10
-106.62333772601728
20
53.465663771401886
30
0
11
-106.62333772601728
21
50.635663771401838
31
0
0
LINE
5
184
100
AcDbEntity
8
0
100
AcDbLine
10
-122.28333772601728
20
53.465663771401886
30
0
11
-122.28333772601728
21
50.635663771401838
31
0
0
LINE
5
185
100
AcDbEntity
8
0
100
AcDbLine
10
-123.28333772601729
20
53.465663771401886
30
0
11
-123.28333772601729
21
49.635663771401823
31
0
0
LINE
5
186
100
AcDbEntity
8
0
100
AcDbLine
10
-123.28333772601729
20
49.635663771401823
30
0
11
-122.78333772601728
21
49.635663771401823
31
0
0
LINE
5
187
100
AcDbEntity
8
0
100
AcDbLine
10
-30.653337726017277
20
33.465663771401879
30
0
11
-30.653337726017305
21
49.635663771401823
31
0
0
LINE
5
188
100
AcDbEntity
8
0
100
AcDbLine
10
-31.653337726017273
20
33.465663771401879
30
0
11
-31.653337726017302
21
49.635663771401823
31
0
0
LINE
5
189
100
AcDbEntity
8
0
100
AcDbLine
10
-64.473337726017277
20
28.465663771401879
30
0
11
2.1666622739827268
21
28.465663771401879
31
0
0
LINE
5
190
100
AcDbEntity
8
0
100
AcDbLine
10
-64.473337726017277
20
27.465663756500717
30
0
11
2.1666622739827268
21
27.465663756500717
31
0
0
LINE
5
191
100
AcDbEntity
8
0
100
AcDbLine
10
-64.973337726017277
20
33.465663771401879
30
0
11
-64.973337726017306
21
49.635663771401823
31
0
0
LINE
5
192
100
AcDbEntity
8
0
100
AcDbLine
10
-63.973337726017277
20
33.465663771401879
30
0
11
-63.973337726017306
21
49.635663771401823
31
0
0
LINE
5
193
100
AcDbEntity
8
0
100
AcDbLine
10
-48.313337726017274
20
33.465663771401879
30
0
11
-48.313337726017302
21
49.635663771401823
31
0
0
LINE
5
194
100
AcDbEntity
8
0
100
AcDbLine
10
-47.313337726017281
20
33.465663771401879
30
0
11
-47.313337726017302
21
49.635663771401823
31
0
0
LINE
5
195
100
AcDbEntity
8
0
100
AcDbLine
10
-14.993337726017273
20
33.465663771401879
30
0
11
-14.9933377260173
21
49.635663771401823
31
0
0
LINE
5
196
100
AcDbEntity
8
0
100
AcDbLine
10
-13.993337726017277
20
33.465663771401879
30
0
11
-13.993337726017304
21
49.635663771401823
31
0
0
LINE
5
197
100
AcDbEntity
8
0
100
AcDbLine
10
1.6666622739827286
20
33.465663771401879
30
0
11
1.6666622739827019
21
49.635663771401823
31
0
0
LINE
5
198
100
AcDbEntity
8
0
100
AcDbLine
10
2.666662273982725
20
33.465663771401879
30
0
11
2.6666622739826984
21
49.635663771401823
31
0
0
LINE
5
199
100
AcDbEntity
8
0
100
AcDbLine
10
2.666662273982725
20
33.465663771401879
30
0
11
2.666662273982725
21
27.465663756500717
31
0
0
LINE
5
200
100
AcDbEntity
8
0
100
AcDbLine
10
2.666662273982725
20
27.465663756500717
30
0
11
2.1666622739827268
21
27.465663756500717
31
0
0
LINE
5
201
100
AcDbEntity
8
0
100
AcDbLine
10
1.6666622739827286
20
33.465663771401879
30
0
11
1.6666622739827286
21
28.465663771401879
31
0
0
LINE
5
202
100
AcDbEntity
8
0
100
AcDbLine
10
-13.993337726017277
20
33.465663771401879
30
0
11
-13.993337726017277
21
28.465663771401879
31
0
0
LINE
5
203
100
AcDbEntity
8
0
100
AcDbLine
10
-14.993337726017273
20
33.465663771401879
30
0
11
-14.993337726017273
21
28.465663771401879
31
0
0
LINE
5
204
100
AcDbEntity
8
0
100
AcDbLine
10
-30.653337726017277
20
33.465663771401879
30
0
11
-30.653337726017277
21
28.465663771401879
31
0
0
LINE
5
205
100
AcDbEntity
8
0
100
AcDbLine
10
-31.653337726017273
20
33.465663771401879
30
0
11
-31.653337726017273
21
28.465663771401879
31
0
0
LINE
5
206
100
AcDbEntity
8
0
100
AcDbLine
10
-64.973337726017277
20
33.465663771401879
30
0
11
-64.973337726017277
21
27.465663756500717
31
0
0
LINE
5
207
100
AcDbEntity
8
0
100
AcDbLine
10
-64.973337726017277
20
27.465663756500717
30
0
11
-64.000000953674316
21
27.465663756500717
31
0
0
LINE
5
208
100
AcDbEntity
8
0
100
AcDbLine
10
-63.973337726017277
20
33.465663771401879
30
0
11
-63.973337726017277
21
28.465663771401879
31
0
0
LINE
5
209
100
AcDbEntity
8
0
100
AcDbLine
10
-48.313337726017274
20
33.465663771401879
30
0
11
-48.313337726017274
21
28.465663771401879
31
0
0
LINE
5
210
100
AcDbEntity
8
0
100
AcDbLine
10
-47.313337726017281
20
33.465663771401879
30
0
11
-47.313337726017281
21
28.465663771401879
31
0
0
LWPOLYLINE
5
211
100
AcDbEntity
8
0
100
AcDbPolyline
90
4
70
1
43
0.0
10
-6.1633377260172839
20
213.40566377140192
10
10.496662273982718
20
213.40566377140192
10
10.49666227398272
20
203.40566377140192
10
-6.163337726017283
20
203.40566377140192
0
LWPOLYLINE
5
212
100
AcDbEntity
8
0
100
AcDbPolyline
90
4
70
1
43
0.0
10
8.6666622739826167
20
207.65566377140189
10
9.6666622739826185
20
207.65566377140189
42
0.99999999999999989
10
9.6666622739826185
20
209.15566377140186
10
8.6666622739827162
20
209.15566377140186
42
0.99999999999999989
0
LWPOLYLINE
5
213
100
AcDbEntity
8
0
100
AcDbPolyline
90
4
70
1
43
0.0
10
-4.3333377260172004
20
212.15566377140192
42
-0.99999999999999989
10
-4.3333377260172536
20
210.65566377140192
10
-5.3333377260173069
20
210.65566377140192
42
-0.99999999999999989
10
-5.3333377260172536
20
212.15566377140192
0
LWPOLYLINE
5
214
100
AcDbEntity
8
0
100
AcDbPolyline
90
4
70
1
43
0.0
10
-5.3333377260171924
20
204.65566377140192
42
-0.99999999999999989
10
-5.3333377260173123
20
206.15566377140192
10
-4.3333377260172536
20
206.15566377140192
42
-0.99999999999999989
10
-4.3333377260172536
20
204.65566377140192
0
LWPOLYLINE
5
215
100
AcDbEntity
8
0
100
AcDbPolyline
90
4
70
1
43
0.0
10
8.6666622739826167
20
204.65566377140189
10
9.6666622739826185
20
204.65566377140189
42
0.99999999999999989
10
9.6666622739826185
20
206.15566377140186
10
8.6666622739826167
20
206.15566377140186
42
0.99999999999999989
0
LWPOLYLINE
5
216
100
AcDbEntity
8
0
100
AcDbPolyline
90
4
70
1
43
0.0
10
8.6666622739827162
20
210.65566377140189
10
9.6666622739827179
20
210.65566377140189
42
0.99999999999999989
10
9.6666622739827179
20
212.15566377140189
10
8.6666622739827162
20
212.15566377140189
42
0.99999999999999989
0
LWPOLYLINE
5
217
100
AcDbEntity
8
0
100
AcDbPolyline
90
4
70
1
43
0.0
10
-4.3333377260172714
20
209.15566377140192
42
-0.99999999999999989
10
-4.3333377260172536
20
207.65566377140192
10
-5.3333377260172359
20
207.65566377140192
42
-0.99999999999999989
10
-5.3333377260172536
20
209.15566377140192
0
LWPOLYLINE
5
218
100
AcDbEntity
8
0
100
AcDbPolyline
90
4
70
1
43
0.0
10
83.846662273983014
20
248.43566377140189
10
-146.15333772601744
20
248.43566377140189
10
-146.15333772601744
20
18.435663771401387
10
83.846662273983014
20
18.435663771401387
0
ENDSEC
0
SECTION
2
OBJECTS
0
DICTIONARY
5
C
100
AcDbDictionary
3
ACAD_GROUP
350
D
3
ACAD_MLINESTYLE
350
17
0
DICTIONARY
5
D
100
AcDbDictionary
0
DICTIONARY
5
1A
330
C
100
AcDbDictionary
0
DICTIONARY
5
17
100
AcDbDictionary
0
ENDSEC
0
EOF
